<mxfile host="Electron" agent="Mozilla/5.0 (Macintosh; Intel Mac OS X 10_15_7) AppleWebKit/537.36 (KHTML, like Gecko) draw.io/27.0.9 Chrome/134.0.6998.205 Electron/35.4.0 Safari/537.36" version="27.0.9">
  <diagram name="Page-1" id="WWZyP5JT3oJC5sQnk2Cy">
    <mxGraphModel dx="1215" dy="748" grid="1" gridSize="10" guides="1" tooltips="1" connect="1" arrows="1" fold="1" page="1" pageScale="1" pageWidth="1654" pageHeight="1169" background="none" math="0" shadow="0">
      <root>
        <mxCell id="0" />
        <mxCell id="1" parent="0" />
        <mxCell id="08FbSoaXQtL4-LH3evyY-1" value="Tag Detector" style="shape=hexagon;perimeter=hexagonPerimeter2;whiteSpace=wrap;html=1;fixedSize=1;labelBackgroundColor=none;fillColor=#09555B;strokeColor=#BAC8D3;fontColor=#EEEEEE;" vertex="1" parent="1">
          <mxGeometry x="390" y="335" width="120" height="80" as="geometry" />
        </mxCell>
        <mxCell id="08FbSoaXQtL4-LH3evyY-3" style="edgeStyle=orthogonalEdgeStyle;rounded=0;orthogonalLoop=1;jettySize=auto;html=1;exitX=1;exitY=0.5;exitDx=0;exitDy=0;entryX=0;entryY=0.5;entryDx=0;entryDy=0;strokeColor=#0B4D6A;" edge="1" parent="1" source="08FbSoaXQtL4-LH3evyY-2" target="08FbSoaXQtL4-LH3evyY-1">
          <mxGeometry relative="1" as="geometry" />
        </mxCell>
        <mxCell id="08FbSoaXQtL4-LH3evyY-5" value="Camera Params" style="edgeLabel;html=1;align=center;verticalAlign=middle;resizable=0;points=[];strokeColor=#BAC8D3;fontColor=#EEEEEE;fillColor=#09555B;" vertex="1" connectable="0" parent="08FbSoaXQtL4-LH3evyY-3">
          <mxGeometry x="-0.0324" y="1" relative="1" as="geometry">
            <mxPoint as="offset" />
          </mxGeometry>
        </mxCell>
        <mxCell id="08FbSoaXQtL4-LH3evyY-2" value="Camera&lt;div&gt;Calibration&lt;/div&gt;" style="rhombus;whiteSpace=wrap;html=1;labelBackgroundColor=none;fillColor=#09555B;strokeColor=#BAC8D3;fontColor=#EEEEEE;" vertex="1" parent="1">
          <mxGeometry x="120" y="310" width="120" height="130" as="geometry" />
        </mxCell>
      </root>
    </mxGraphModel>
  </diagram>
</mxfile>
